<svg width="16" height="16" viewBox="0 0 16 16" fill="none" xmlns="http://www.w3.org/2000/svg">
<path d="M2.15256 3.99753C3.15956 3.99753 3.97589 3.18119 3.97589 2.17419C3.97589 1.16719 3.15956 0.350861 2.15256 0.350861C1.14556 0.350861 0.329224 1.16719 0.329224 2.17419C0.329224 3.18119 1.14556 3.99753 2.15256 3.99753Z" fill="#5B1FA6"/>
<path d="M5.69756 5.37915V15.495H8.83839V10.4925C8.83839 9.17248 9.08672 7.89415 10.7234 7.89415C12.3376 7.89415 12.3576 9.40332 12.3576 10.5758V15.4958H15.5001V9.94832C15.5001 7.22332 14.9134 5.12915 11.7284 5.12915C10.1992 5.12915 9.17422 5.96832 8.75506 6.76248H8.71256V5.37915H5.69756ZM0.579224 5.37915H3.72506V15.495H0.579224V5.37915Z" fill="#5B1FA6"/>
</svg>
