<svg width="18" height="12" viewBox="0 0 18 12" fill="none" xmlns="http://www.w3.org/2000/svg">
<path d="M16.9942 2.0025C16.8993 1.65033 16.7138 1.32917 16.4562 1.07097C16.1986 0.812772 15.8778 0.626546 15.5259 0.530829C14.2209 0.172496 9.00003 0.166663 9.00003 0.166663C9.00003 0.166663 3.78003 0.160829 2.4742 0.503329C2.12247 0.603451 1.80238 0.79231 1.54467 1.05177C1.28696 1.31124 1.10027 1.6326 1.00253 1.985C0.658364 3.29 0.655031 5.99666 0.655031 5.99666C0.655031 5.99666 0.651697 8.71666 0.993364 10.0083C1.18503 10.7225 1.74753 11.2867 2.46253 11.4792C3.78086 11.8375 8.98753 11.8433 8.98753 11.8433C8.98753 11.8433 14.2084 11.8492 15.5134 11.5075C15.8654 11.4119 16.1865 11.2261 16.4447 10.9685C16.703 10.7108 16.8895 10.3902 16.9859 10.0383C17.3309 8.73416 17.3334 6.02833 17.3334 6.02833C17.3334 6.02833 17.35 3.3075 16.9942 2.0025ZM7.33003 8.50416L7.3342 3.50416L11.6734 6.00833L7.33003 8.50416Z" fill="#5B1FA6"/>
</svg>
