<svg width="18" height="14" viewBox="0 0 18 14" fill="none" xmlns="http://www.w3.org/2000/svg">
<path d="M15.3608 3.66415C15.3716 3.80999 15.3716 3.95499 15.3716 4.09999C15.3716 8.53749 11.9941 13.6508 5.82163 13.6508C3.91996 13.6508 2.15329 13.1 0.666626 12.1433C0.936626 12.1742 1.19663 12.185 1.47746 12.185C2.98829 12.1886 4.45633 11.6834 5.64496 10.7508C4.94448 10.7381 4.26544 10.507 3.70266 10.0898C3.13988 9.6725 2.72145 9.0899 2.50579 8.42332C2.71329 8.45415 2.92163 8.47499 3.13996 8.47499C3.44079 8.47499 3.74329 8.43332 4.02413 8.36082C3.26393 8.20733 2.58035 7.79528 2.08964 7.19472C1.59893 6.59417 1.33137 5.84219 1.33246 5.06665V5.02499C1.77996 5.27415 2.29913 5.42999 2.84913 5.45082C2.38837 5.14464 2.01056 4.72917 1.74941 4.24148C1.48826 3.75378 1.35189 3.20903 1.35246 2.65582C1.35246 2.03249 1.51829 1.46082 1.80913 0.962485C2.65257 2 3.70455 2.84879 4.89691 3.45387C6.08927 4.05895 7.39543 4.40683 8.73079 4.47499C8.67913 4.22499 8.64746 3.96582 8.64746 3.70582C8.64724 3.26495 8.73391 2.82837 8.90252 2.42102C9.07113 2.01367 9.31838 1.64355 9.63012 1.33181C9.94185 1.02007 10.312 0.772828 10.7193 0.604217C11.1267 0.435606 11.5633 0.348933 12.0041 0.349152C12.9708 0.349152 13.8433 0.754152 14.4566 1.40915C15.2081 1.26383 15.9287 0.989504 16.5866 0.598319C16.3361 1.374 15.8114 2.03174 15.1108 2.44832C15.7773 2.3723 16.4287 2.19703 17.0433 1.92832C16.5842 2.59757 16.0154 3.18444 15.3608 3.66415Z" fill="#5B1FA6"/>
</svg>
