<svg width="62" height="64" viewBox="0 0 62 64" fill="none" xmlns="http://www.w3.org/2000/svg">
<path d="M60 61.8125L50.6786 52.491M53.7857 42.3929C53.7857 49.6861 47.8735 55.5984 40.5803 55.5984C33.2872 55.5984 27.375 49.6861 27.375 42.3929C27.375 35.0998 33.2872 29.1875 40.5803 29.1875C47.8735 29.1875 53.7857 35.0998 53.7857 42.3929Z" stroke="#3C48AA" stroke-width="2.71875" stroke-linecap="round" stroke-linejoin="round"/>
<path d="M43.6875 19.1654V6.90441C43.6875 4.19472 41.4928 2 38.7831 2H6.90441C4.19472 2 2 4.19472 2 6.90441V38.7831C2 41.4928 4.19472 43.6875 6.90441 43.6875H16.7132" stroke="#3C48AA" stroke-width="2.71875" stroke-linecap="round" stroke-linejoin="round"/>
<path d="M8.92532 8.1063C8.91797 8.1063 8.91306 8.1112 8.91306 8.11856C8.91306 8.12592 8.91797 8.13082 8.92532 8.13082C8.93268 8.13082 8.93758 8.12592 8.93758 8.11856C8.93758 8.1112 8.93268 8.1063 8.92532 8.1063" stroke="#7B88F5" stroke-width="2.71875" stroke-linecap="round" stroke-linejoin="round"/>
<path d="M16.2808 8.1063C16.2734 8.1063 16.2685 8.1112 16.2685 8.11856C16.2685 8.12592 16.2759 8.13082 16.2808 8.13082C16.2881 8.13082 16.2931 8.12592 16.2931 8.11856C16.2931 8.1112 16.2881 8.1063 16.2808 8.1063" stroke="#7B88F5" stroke-width="2.71875" stroke-linecap="round" stroke-linejoin="round"/>
<path d="M23.6363 8.11826C23.6289 8.11826 23.624 8.12317 23.624 8.13052C23.624 8.13788 23.6289 8.14278 23.6363 8.14278C23.6436 8.14278 23.6485 8.13788 23.6485 8.13052C23.6485 8.12317 23.6436 8.11826 23.6363 8.11826" stroke="#7B88F5" stroke-width="2.71875" stroke-linecap="round" stroke-linejoin="round"/>
<path d="M2.11328 14.2611H43.688" stroke="#3C48AA" stroke-width="2.71875" stroke-linecap="round" stroke-linejoin="round"/>
<path d="M36.4375 38.25L45.5 47.3125" stroke="#7B88F5" stroke-width="2.71875" stroke-linecap="round" stroke-linejoin="round"/>
<path d="M45.5 38.25L36.4375 47.3125" stroke="#7B88F5" stroke-width="2.71875" stroke-linecap="round" stroke-linejoin="round"/>
</svg>
